<?xml version="1.0" encoding="UTF-8"?>
<svg id="Layer_2" xmlns="http://www.w3.org/2000/svg" width="100%" height="100%" >
    <style>
        .light-blue {
            fill:#d8deed;
        }
        
        .dark-blue {
            fill:#4962ab;
        }

        .active-color {
            fill:#d8deed;
        }

    </style>   
    <defs>
        <pattern id="bullseye" x="7" y="7" width="100%" height="100%" patternUnits="userSpaceOnUse"
        patternTransform="scale(.25 .25)">
            <g id="bullseye-paths">
                <path class="active-color" d="M11.09,81H0v74H74v-11.09c-33.94-1.76-61.15-28.97-62.91-62.91Z" />
                <path class="active-color" d="M81,0V11.09c33.94,1.76,61.15,28.97,62.91,62.91h11.09V0H81Z" />
                <path class="active-color" d="M74,11.09V0H0V74H11.09c1.76-33.94,28.97-61.15,62.91-62.91Z" />
                <path class="active-color" d="M81,143.91v11.09h74V81h-11.09c-1.76,33.94-28.97,61.15-62.91,62.91Z" />
            </g>
        </pattern>
        <!--pattern id="x4repeat" x="7" y="7" width="648" height="648" patternUnits="userSpaceOnUse">
            <rect class="x4repeat" width="648" height="648"  fill="url(#square)"/>
        </pattern-->
    </defs>
    <rect x="0" y="0" width="100%" height="100%" fill="url(#bullseye)"></rect>
</svg>